<svg xmlns="http://www.w3.org/2000/svg" viewBox="0 0 360 500" width="360" height="500"><defs><linearGradient id="g" x1="0" y1="0" x2="0" y2="1"><stop offset="0" stop-color="#08348C"/><stop offset=".5" stop-color="#061440"/><stop offset="1" stop-color="#030F26"/></linearGradient><linearGradient id="h" x1="0" y1="0" x2="1" y2="1"><stop offset="0" stop-color="#3071F2"/><stop offset=".5" stop-color="#2256F2"/><stop offset="1" stop-color="#08348C"/></linearGradient></defs><rect width="360" height="500" fill="url(#g)"/><rect x="28" y="34" width="70" height="10" rx="5" fill="#FFFFFF" fill-opacity=".8"/><circle cx="318" cy="39" r="11" fill="#FFFFFF" fill-opacity=".15"/><rect x="28" y="70" width="304" height="118" rx="18" fill="url(#h)"/><rect x="48" y="96" width="120" height="12" rx="6" fill="#FFFFFF"/><rect x="48" y="118" width="84" height="8" rx="4" fill="#FFFFFF" fill-opacity=".6"/><rect x="48" y="148" width="72" height="24" rx="8" fill="#FFFFFF"/><rect x="28" y="210" width="304" height="50" rx="12" fill="#FFFFFF" fill-opacity=".07"/><circle cx="54" cy="235" r="13" fill="#3071F2"/><rect x="78" y="226" width="150" height="7" rx="3.5" fill="#FFFFFF" fill-opacity=".45"/><rect x="78" y="240" width="96" height="6" rx="3" fill="#FFFFFF" fill-opacity=".2"/><rect x="28" y="272" width="304" height="50" rx="12" fill="#FFFFFF" fill-opacity=".07"/><circle cx="54" cy="297" r="13" fill="#FFFFFF"/><rect x="78" y="288" width="150" height="7" rx="3.5" fill="#FFFFFF" fill-opacity=".45"/><rect x="78" y="302" width="96" height="6" rx="3" fill="#FFFFFF" fill-opacity=".2"/><rect x="28" y="334" width="304" height="50" rx="12" fill="#FFFFFF" fill-opacity=".07"/><circle cx="54" cy="359" r="13" fill="#2256F2"/><rect x="78" y="350" width="150" height="7" rx="3.5" fill="#FFFFFF" fill-opacity=".45"/><rect x="78" y="364" width="96" height="6" rx="3" fill="#FFFFFF" fill-opacity=".2"/><rect x="28" y="420" width="304" height="46" rx="14" fill="#FFFFFF"/><rect x="140" y="439" width="80" height="8" rx="4" fill="#030F26"/><rect x="0.75" y="0.75" width="358.5" height="498.5" rx="6" fill="none" stroke="#FFFFFF" stroke-opacity="0.16" stroke-width="1.5"/></svg>